<svg width="100" height="100" viewBox="0 0 100 100" fill="none" xmlns="http://www.w3.org/2000/svg">
<circle cx="50" cy="50" r="50" fill="#FFE485"/>
<circle cx="50" cy="50" r="45" fill="#FCC400"/>
<g filter="url(#filter0_d_2_11)">
<path d="M26.08 41.152V58H21.976V51.064H15.592V58H11.488V41.152H15.592V47.752H21.976V41.152H26.08ZM33.1467 44.44V47.848H38.6427V51.016H33.1467V54.712H39.3627V58H29.0427V41.152H39.3627V44.44H33.1467ZM52.5151 55.024H46.2271L45.2191 58H40.9231L47.0191 41.152H51.7711L57.8671 58H53.5231L52.5151 55.024ZM51.4591 51.856L49.3711 45.688L47.3071 51.856H51.4591ZM66.0344 41.152C67.8104 41.152 69.3624 41.504 70.6904 42.208C72.0184 42.912 73.0424 43.904 73.7624 45.184C74.4984 46.448 74.8664 47.912 74.8664 49.576C74.8664 51.224 74.4984 52.688 73.7624 53.968C73.0424 55.248 72.0104 56.24 70.6664 56.944C69.3384 57.648 67.7944 58 66.0344 58H59.7224V41.152H66.0344ZM65.7704 54.448C67.3224 54.448 68.5304 54.024 69.3944 53.176C70.2584 52.328 70.6904 51.128 70.6904 49.576C70.6904 48.024 70.2584 46.816 69.3944 45.952C68.5304 45.088 67.3224 44.656 65.7704 44.656H63.8264V54.448H65.7704ZM83.2559 58.168C82.0239 58.168 80.9199 57.968 79.9439 57.568C78.9679 57.168 78.1839 56.576 77.5919 55.792C77.0159 55.008 76.7119 54.064 76.6799 52.96H81.0479C81.1119 53.584 81.3279 54.064 81.6959 54.4C82.0639 54.72 82.5439 54.88 83.1359 54.88C83.7439 54.88 84.2239 54.744 84.5759 54.472C84.9279 54.184 85.1039 53.792 85.1039 53.296C85.1039 52.88 84.9599 52.536 84.6719 52.264C84.3999 51.992 84.0559 51.768 83.6399 51.592C83.2399 51.416 82.6639 51.216 81.9119 50.992C80.8239 50.656 79.9359 50.32 79.2479 49.984C78.5599 49.648 77.9679 49.152 77.4719 48.496C76.9759 47.84 76.7279 46.984 76.7279 45.928C76.7279 44.36 77.2959 43.136 78.4319 42.256C79.5679 41.36 81.0479 40.912 82.8719 40.912C84.7279 40.912 86.2239 41.36 87.3599 42.256C88.4959 43.136 89.1039 44.368 89.1839 45.952H84.7439C84.7119 45.408 84.5119 44.984 84.1439 44.68C83.7759 44.36 83.3039 44.2 82.7279 44.2C82.2319 44.2 81.8319 44.336 81.5279 44.608C81.2239 44.864 81.0719 45.24 81.0719 45.736C81.0719 46.28 81.3279 46.704 81.8399 47.008C82.3519 47.312 83.1519 47.64 84.2399 47.992C85.3279 48.36 86.2079 48.712 86.8799 49.048C87.5679 49.384 88.1599 49.872 88.6559 50.512C89.1519 51.152 89.3999 51.976 89.3999 52.984C89.3999 53.944 89.1519 54.816 88.6559 55.6C88.1759 56.384 87.4719 57.008 86.5439 57.472C85.6159 57.936 84.5199 58.168 83.2559 58.168Z" fill="#FFE485"/>
</g>
<defs>
<filter id="filter0_d_2_11" x="10.488" y="40.912" width="79.9119" height="19.256" filterUnits="userSpaceOnUse" color-interpolation-filters="sRGB">
<feFlood flood-opacity="0" result="BackgroundImageFix"/>
<feColorMatrix in="SourceAlpha" type="matrix" values="0 0 0 0 0 0 0 0 0 0 0 0 0 0 0 0 0 0 127 0" result="hardAlpha"/>
<feOffset dy="1"/>
<feGaussianBlur stdDeviation="0.5"/>
<feComposite in2="hardAlpha" operator="out"/>
<feColorMatrix type="matrix" values="0 0 0 0 0 0 0 0 0 0 0 0 0 0 0 0 0 0 0.25 0"/>
<feBlend mode="normal" in2="BackgroundImageFix" result="effect1_dropShadow_2_11"/>
<feBlend mode="normal" in="SourceGraphic" in2="effect1_dropShadow_2_11" result="shape"/>
</filter>
</defs>
</svg>
