<svg width="100" height="100" viewBox="0 0 100 100" fill="none" xmlns="http://www.w3.org/2000/svg">
<circle cx="50" cy="50" r="50" fill="#FFE485"/>
<circle cx="50" cy="50" r="45" fill="#FCC400"/>
<g filter="url(#filter0_d_2_12)">
<path d="M30.608 41.152V44.44H26.144V58H22.04V44.44H17.576V41.152H30.608ZM43.1557 55.024H36.8677L35.8597 58H31.5637L37.6597 41.152H42.4117L48.5077 58H44.1637L43.1557 55.024ZM42.0997 51.856L40.0117 45.688L37.9477 51.856H42.0997ZM54.467 41.152V58H50.363V41.152H54.467ZM61.5451 54.832H66.9211V58H57.4411V41.152H61.5451V54.832ZM74.9746 58.168C73.7426 58.168 72.6386 57.968 71.6626 57.568C70.6866 57.168 69.9026 56.576 69.3106 55.792C68.7346 55.008 68.4306 54.064 68.3986 52.96H72.7666C72.8306 53.584 73.0466 54.064 73.4146 54.4C73.7826 54.72 74.2626 54.88 74.8546 54.88C75.4626 54.88 75.9426 54.744 76.2946 54.472C76.6466 54.184 76.8226 53.792 76.8226 53.296C76.8226 52.88 76.6786 52.536 76.3906 52.264C76.1186 51.992 75.7746 51.768 75.3586 51.592C74.9586 51.416 74.3826 51.216 73.6306 50.992C72.5426 50.656 71.6546 50.32 70.9666 49.984C70.2786 49.648 69.6866 49.152 69.1906 48.496C68.6946 47.84 68.4466 46.984 68.4466 45.928C68.4466 44.36 69.0146 43.136 70.1506 42.256C71.2866 41.36 72.7666 40.912 74.5906 40.912C76.4466 40.912 77.9426 41.36 79.0786 42.256C80.2146 43.136 80.8226 44.368 80.9026 45.952H76.4626C76.4306 45.408 76.2306 44.984 75.8626 44.68C75.4946 44.36 75.0226 44.2 74.4466 44.2C73.9506 44.2 73.5506 44.336 73.2466 44.608C72.9426 44.864 72.7906 45.24 72.7906 45.736C72.7906 46.28 73.0466 46.704 73.5586 47.008C74.0706 47.312 74.8706 47.64 75.9586 47.992C77.0466 48.36 77.9266 48.712 78.5986 49.048C79.2866 49.384 79.8786 49.872 80.3746 50.512C80.8706 51.152 81.1186 51.976 81.1186 52.984C81.1186 53.944 80.8706 54.816 80.3746 55.6C79.8946 56.384 79.1906 57.008 78.2626 57.472C77.3346 57.936 76.2386 58.168 74.9746 58.168Z" fill="#FFE485"/>
</g>
<defs>
<filter id="filter0_d_2_12" x="16.576" y="40.912" width="65.5426" height="19.256" filterUnits="userSpaceOnUse" color-interpolation-filters="sRGB">
<feFlood flood-opacity="0" result="BackgroundImageFix"/>
<feColorMatrix in="SourceAlpha" type="matrix" values="0 0 0 0 0 0 0 0 0 0 0 0 0 0 0 0 0 0 127 0" result="hardAlpha"/>
<feOffset dy="1"/>
<feGaussianBlur stdDeviation="0.5"/>
<feComposite in2="hardAlpha" operator="out"/>
<feColorMatrix type="matrix" values="0 0 0 0 0 0 0 0 0 0 0 0 0 0 0 0 0 0 0.25 0"/>
<feBlend mode="normal" in2="BackgroundImageFix" result="effect1_dropShadow_2_12"/>
<feBlend mode="normal" in="SourceGraphic" in2="effect1_dropShadow_2_12" result="shape"/>
</filter>
</defs>
</svg>
